<svg width="80" height="80" viewBox="0 0 80 80" fill="none" xmlns="http://www.w3.org/2000/svg">
<g clip-path="url(#clip0_901_9532)">
<path d="M79.246 32.2615C79.246 26.499 77.0566 21.0958 73.081 17.0473C69.0833 12.9762 63.7216 10.7344 57.9835 10.7344C50.6749 10.7344 43.9626 14.3981 40.0003 20.424C36.0378 14.398 29.3254 10.7344 22.0169 10.7344C16.2787 10.7344 10.917 12.9766 6.91938 17.0475C2.94377 21.0961 0.754395 26.4992 0.754395 32.2617C0.754395 37.6626 2.31736 40.8193 3.5733 43.356L3.70986 43.6321C8.91 54.1666 37.9845 78.3311 39.2195 79.3547L39.9981 80L40.7784 79.3566C40.8074 79.3325 43.5498 77.0696 47.4551 73.6821C51.0941 76.9283 53.9876 79.3289 54.0187 79.3545L54.7973 79.9999L55.5776 79.3564C56.3415 78.7266 74.3232 63.8561 77.4 57.3624L77.4857 57.1823C78.2285 55.6196 79.2458 53.4798 79.2458 50.2246C79.2458 47.4002 78.4194 44.7268 76.853 42.4431C77.9053 40.1868 79.246 36.9331 79.246 32.2615ZM75.2758 56.1316L75.1888 56.3148C72.6843 61.6007 58.3254 73.8575 54.801 76.8175C53.593 75.7988 51.1109 73.6825 48.2854 71.1408C44.0073 67.2925 40.5756 63.9408 38.1517 61.2588C37.4784 60.5138 36.8828 59.8204 36.3685 59.1824C36.1628 58.9272 35.9701 58.681 35.7906 58.4438C35.1623 57.6135 34.696 56.8946 34.4014 56.2973L34.3504 56.1943C33.6359 54.7482 32.8259 53.1094 32.8259 50.2251C32.8259 43.9573 37.6531 39.0476 43.8154 39.0476C47.9818 39.0476 51.7756 41.3415 53.716 45.0338L54.7991 47.0946L55.8823 45.0338C57.8227 41.3413 61.6165 39.0476 65.7829 39.0476C69.2133 39.0476 72.3794 40.6049 74.4689 43.3199C75.993 45.3002 76.7985 47.6879 76.7985 50.2251C76.7989 52.9277 75.9899 54.6299 75.2758 56.1316ZM75.1053 40.3637C75.1002 40.3587 75.0944 40.3538 75.0893 40.3487C74.9543 40.2179 74.8161 40.0907 74.6761 39.9663C74.6518 39.9446 74.6277 39.9226 74.6032 39.901C74.4627 39.7779 74.3199 39.6581 74.175 39.5413C74.1463 39.5184 74.1177 39.4956 74.0888 39.4726C73.9402 39.3548 73.7897 39.2396 73.6366 39.1285C73.6232 39.1187 73.6096 39.1096 73.596 39.0998C73.4477 38.9931 73.2972 38.8899 73.145 38.7898C73.1216 38.7743 73.0983 38.7584 73.0749 38.7431C72.9188 38.6417 72.7604 38.544 72.6002 38.4495C72.5688 38.4309 72.5371 38.4124 72.5053 38.394C72.3433 38.3001 72.1799 38.209 72.0141 38.1221C71.9944 38.1117 71.9741 38.102 71.9544 38.0917C71.7939 38.0085 71.6318 37.9287 71.468 37.8523C71.4471 37.8424 71.4264 37.8323 71.4055 37.8226C71.2357 37.7443 71.0638 37.6704 70.8905 37.5995C70.8568 37.5856 70.8229 37.5718 70.7889 37.5582C70.616 37.489 70.4418 37.4228 70.2658 37.3609C70.2404 37.352 70.2146 37.3435 70.1889 37.3346C70.0171 37.2753 69.8438 37.2192 69.6691 37.1667C69.6519 37.1615 69.635 37.1559 69.6179 37.1509C69.4366 37.0974 69.2536 37.0484 69.0696 37.0026C69.034 36.9939 68.9986 36.9848 68.963 36.9762C68.7816 36.9324 68.5991 36.8921 68.4152 36.856C68.3843 36.8499 68.353 36.8445 68.3219 36.8385C68.138 36.8037 67.9532 36.7718 67.7672 36.7446C67.7568 36.7432 67.7463 36.7412 67.736 36.7398C67.5449 36.7123 67.3527 36.6899 67.1597 36.6704C67.1233 36.6668 67.0869 36.6629 67.0507 36.6595C66.8627 36.642 66.6738 36.6284 66.4841 36.6187C66.4493 36.617 66.4143 36.6157 66.3794 36.6143C66.1816 36.6059 65.983 36.6001 65.7835 36.6001C61.3941 36.6001 57.3448 38.6879 54.7996 42.1601C52.2546 38.6881 48.2051 36.6001 43.8157 36.6001C43.1346 36.6001 42.462 36.6499 41.802 36.7482C38.9418 37.1735 36.3184 38.5042 34.2667 40.5998C31.7598 43.1602 30.3792 46.5784 30.3792 50.2246C30.3792 53.6805 31.3648 55.6752 32.1568 57.278L32.2073 57.3801C32.254 57.4748 32.304 57.5715 32.3568 57.6699C32.3739 57.7013 32.3928 57.7343 32.4103 57.7662C32.4476 57.8341 32.4848 57.9019 32.5251 57.9718C32.5481 58.0116 32.5732 58.0529 32.5971 58.0933C32.6348 58.1571 32.672 58.2205 32.712 58.2858C32.7395 58.3307 32.769 58.3769 32.7978 58.4224C32.8371 58.4851 32.8759 58.5474 32.9173 58.6113C32.9487 58.6599 32.9825 58.7099 33.015 58.7593C33.0565 58.8222 33.0979 58.8851 33.1417 58.9493C33.1764 59.0005 33.2131 59.0529 33.249 59.1049C33.2936 59.1691 33.3379 59.2335 33.3845 59.299C33.4226 59.3529 33.4625 59.4077 33.502 59.4626C33.5493 59.5282 33.5967 59.5937 33.6457 59.6605C33.6873 59.7171 33.7306 59.7747 33.7735 59.8321C33.8237 59.899 33.8737 59.966 33.9256 60.0341C33.9704 60.0932 34.0168 60.1529 34.0631 60.2127C34.1159 60.2811 34.1692 60.3496 34.2235 60.4191C34.272 60.4808 34.3218 60.5433 34.3717 60.6058C34.4271 60.6755 34.4832 60.7455 34.5406 60.8163C34.5921 60.8801 34.6446 60.9444 34.6975 61.009C34.7562 61.0805 34.8156 61.1527 34.8759 61.2254C34.9306 61.2913 34.986 61.3576 35.0421 61.4244C35.104 61.498 35.1668 61.5722 35.2303 61.6469C35.2879 61.7146 35.3459 61.7827 35.4048 61.8512C35.4696 61.9265 35.5354 62.0026 35.602 62.0791C35.6629 62.1493 35.7243 62.2197 35.7868 62.2908C35.8543 62.3679 35.9234 62.4457 35.9926 62.5237C36.0565 62.5957 36.1207 62.6679 36.186 62.741C36.2568 62.8199 36.3292 62.8999 36.4015 62.98C36.4687 63.0543 36.5359 63.1285 36.6046 63.2036C36.6782 63.2843 36.7534 63.3658 36.8287 63.4474C36.8992 63.524 36.9693 63.6001 37.041 63.6774C37.1175 63.7596 37.1957 63.843 37.2737 63.9261C37.3476 64.005 37.421 64.0836 37.4964 64.1635C37.5753 64.2471 37.6562 64.3318 37.7367 64.4163C37.814 64.4975 37.8904 64.5783 37.9693 64.6604C38.0515 64.746 38.1359 64.8332 38.2196 64.9197C38.2998 65.0025 38.3789 65.085 38.4604 65.1688C38.5468 65.2577 38.6359 65.3482 38.724 65.4382C38.8056 65.5215 38.886 65.604 38.969 65.6882C39.062 65.7824 39.1576 65.8783 39.2524 65.9738C39.3339 66.0558 39.414 66.1369 39.4968 66.2197C39.5956 66.3186 39.6971 66.4193 39.7978 66.5193C39.9585 66.6791 40.1217 66.8407 40.2873 67.0035C40.3899 67.1046 40.4915 67.2047 40.5959 67.3071C40.689 67.3982 40.7849 67.491 40.8795 67.583C40.9788 67.6796 41.077 67.7755 41.1779 67.873C41.2771 67.9691 41.379 68.0666 41.4799 68.1638C41.5788 68.2589 41.6767 68.3533 41.777 68.4494C41.8803 68.5483 41.9859 68.6486 42.0907 68.7485C42.1921 68.8452 42.2931 68.9413 42.3959 69.0388C42.5007 69.1382 42.6078 69.2389 42.7142 69.3394C42.8201 69.4393 42.9254 69.5388 43.0328 69.6396C43.1415 69.7418 43.2523 69.845 43.3626 69.9482C43.4696 70.0482 43.5762 70.1479 43.6845 70.2486C43.799 70.3552 43.9154 70.463 44.0317 70.5707C44.1393 70.6705 44.247 70.7702 44.3562 70.8708C44.4735 70.9789 44.5924 71.0883 44.7113 71.1975C44.8229 71.3002 44.9346 71.4027 45.0477 71.5061C45.1667 71.6149 45.2871 71.7247 45.4076 71.8346C45.4796 71.9003 45.5504 71.965 45.6231 72.0313C43.0728 74.2405 41.0487 75.9444 40.0026 76.8185C35.2645 72.8368 10.4192 51.6959 5.90407 42.5485L5.76626 42.2699C4.56392 39.8418 3.20142 37.0898 3.20142 32.2614C3.20142 21.5622 11.4661 13.1811 22.0169 13.1811C29.129 13.1811 35.6048 17.0966 38.9171 23.3992L40.0003 25.4601L41.0834 23.3992C44.3957 17.0966 50.8715 13.1811 57.9837 13.1811C68.5344 13.1811 76.7991 21.5622 76.7991 32.2614C76.7989 35.7779 75.9638 38.3618 75.1053 40.3637Z" fill="white"/>
<path d="M23.113 0H20.666V7.61795H23.113V0Z" fill="white"/>
<path d="M32.4592 2.22281L29.2612 9.13672L31.4821 10.164L34.6801 3.25007L32.4592 2.22281Z" fill="white"/>
<path d="M11.3186 2.22078L9.09766 3.24805L12.2956 10.162L14.5165 9.1347L11.3186 2.22078Z" fill="white"/>
<path d="M8.42359 33.5975C8.42359 33.4825 8.42468 33.3676 8.42718 33.2529L5.98063 33.2021C5.97781 33.3337 5.97656 33.4653 5.97656 33.5975C5.97656 35.2382 6.14344 36.7335 6.48687 38.1687L8.86671 37.5992C8.56843 36.3529 8.42359 35.0439 8.42359 33.5975Z" fill="white"/>
<path d="M11.7392 20.1484C8.80827 22.9036 6.84436 26.628 6.20874 30.6358L8.62561 31.019C9.17655 27.5445 10.8775 24.3172 13.4151 21.9316L11.7392 20.1484Z" fill="white"/>
<path d="M40.6959 41.6934C37.3317 43.2535 35.1314 46.5657 34.9539 50.3376L37.3981 50.4526C37.5324 47.5943 39.1907 45.0887 41.7254 43.9134L40.6959 41.6934Z" fill="white"/>
</g>
<defs>
<clipPath id="clip0_901_9532">
<rect width="80" height="80" fill="white"/>
</clipPath>
</defs>
</svg>
