<svg width="114" height="114" viewBox="0 0 114 114" fill="none" xmlns="http://www.w3.org/2000/svg">
<g clip-path="url(#clip0_901_9594)">
<path d="M55.1747 73.837L40.1697 58.0258C39.9723 57.8178 39.8656 57.5399 39.8731 57.2533C39.8806 56.9667 40.0017 56.6948 40.2096 56.4974L64.758 33.2006C64.7862 33.1738 64.8145 33.147 64.8427 33.1202C69.731 29.3948 76.1429 28.4338 84.4432 30.1818C84.6576 30.2271 84.8532 30.3365 85.004 30.4954C85.1548 30.6544 85.2538 30.8554 85.2878 31.0719C86.607 39.4584 85.3076 45.8082 81.3256 50.4933C81.301 50.5227 81.2748 50.5506 81.247 50.5769L56.6994 73.873C56.4921 74.0697 56.2153 74.1764 55.9296 74.1696C55.6439 74.1629 55.3725 74.0433 55.1747 73.837ZM42.4822 57.3216L55.9989 71.5644L79.7208 49.052C83.1787 44.961 84.3122 39.5751 83.2697 32.1554C75.9154 30.7303 70.4775 31.5807 66.2062 34.813L42.4822 57.3216Z" fill="white"/>
<path d="M34.7154 55.5229C34.6126 55.4148 34.5333 55.2865 34.4825 55.1462C34.4316 55.0059 34.4104 54.8566 34.4201 54.7077L34.5652 52.555C34.6977 50.3619 35.4597 48.2536 36.7597 46.4824C38.0598 44.7113 39.8428 43.3524 41.8953 42.5686L42.0273 42.5193C46.423 40.8982 51.2745 41.0353 55.5717 42.9019C55.7269 42.9797 55.8611 43.0937 55.9629 43.2344C56.0648 43.3751 56.1312 43.5382 56.1566 43.71C56.1821 43.8817 56.1658 44.0571 56.1091 44.2213C56.0524 44.3854 55.957 44.5335 55.831 44.6529L44.7985 55.1229C44.6654 55.2491 44.5023 55.3394 44.3246 55.3852C44.147 55.4309 43.9606 55.4308 43.783 55.3846C41.1653 54.7834 38.4317 54.9234 35.8891 55.7891C35.7196 55.8538 35.5365 55.8747 35.3567 55.8499C35.1769 55.8252 35.0063 55.7556 34.8605 55.6475C34.8087 55.6102 34.7601 55.5685 34.7154 55.5229ZM42.2718 43.5825L42.6483 44.5949C40.9858 45.2332 39.5427 46.3373 38.4917 47.7748C37.4407 49.2123 36.8264 50.9224 36.7224 52.7001L36.6813 53.3055C38.9932 52.7441 41.3995 52.692 43.7336 53.1527L53.0871 44.276C49.7056 43.2633 46.0886 43.3595 42.7657 44.5505L42.2718 43.5825Z" fill="white"/>
<path d="M57.3955 79.4222C57.3516 79.3759 57.3117 79.326 57.2763 79.273C57.176 79.1218 57.1154 78.9477 57.1001 78.7669C57.0848 78.5861 57.1152 78.4043 57.1886 78.2384C58.1861 75.7445 58.4689 73.022 58.0053 70.3764C57.9685 70.1967 57.9781 70.0106 58.0331 69.8355C58.0881 69.6605 58.1867 69.5024 58.3197 69.376L69.3545 58.9038C69.4804 58.7842 69.6333 58.6967 69.8002 58.6486C69.967 58.6006 70.143 58.5935 70.3132 58.6279C70.4835 58.6622 70.6429 58.7371 70.778 58.8462C70.9132 58.9552 71.0201 59.0952 71.0897 59.2543C72.729 63.6431 72.6122 68.4952 70.7636 72.8001L70.7075 72.9294C69.8174 74.9381 68.3672 76.6476 66.5305 77.8533C64.6938 79.059 62.5485 79.7096 60.3515 79.7274L58.1942 79.7597C58.045 79.7616 57.897 79.7326 57.7595 79.6745C57.6221 79.6164 57.4981 79.5305 57.3955 79.4222ZM60.2339 70.5403C60.572 72.8952 60.3942 75.2955 59.7127 77.5749L60.3193 77.5655C62.0994 77.5543 63.8386 77.0304 65.3286 76.0565C66.8187 75.0825 67.9964 73.6997 68.721 72.0737L69.7613 72.3846L68.7659 71.964C70.129 68.7079 70.4142 65.1009 69.5796 61.671L60.2339 70.5403Z" fill="white"/>
<path d="M69.2161 45.4927C68.4407 44.676 67.9249 43.6476 67.734 42.5377C67.543 41.4278 67.6855 40.2862 68.1434 39.2572C68.6013 38.2283 69.3541 37.3583 70.3064 36.7571C71.2588 36.156 72.3681 35.8509 73.4939 35.8802C74.6198 35.9095 75.7116 36.2721 76.6314 36.922C77.5512 37.5719 78.2576 38.48 78.6613 39.5314C79.065 40.5827 79.1478 41.7302 78.8993 42.8287C78.6508 43.9272 78.0821 44.9273 77.2652 45.7025C76.1692 46.7403 74.7062 47.3011 73.1973 47.2618C71.6884 47.2224 70.2566 46.5862 69.2161 45.4927ZM75.9074 39.1426C75.4266 38.6357 74.8063 38.2827 74.125 38.1284C73.4436 37.9741 72.7318 38.0253 72.0795 38.2756C71.4272 38.5259 70.8638 38.964 70.4606 39.5345C70.0574 40.105 69.8324 40.7823 69.8141 41.4807C69.7958 42.1791 69.9851 42.8672 70.358 43.458C70.7308 44.0489 71.2705 44.5158 71.9088 44.7999C72.5471 45.0839 73.2553 45.1723 73.9438 45.0538C74.6323 44.9353 75.2702 44.6153 75.7768 44.1342C76.455 43.489 76.8497 42.6011 76.8741 41.6654C76.8986 40.7296 76.551 39.8224 75.9074 39.1426Z" fill="white"/>
<path d="M51.1629 76.1024L37.6983 61.9145C37.5009 61.7065 37.3942 61.4286 37.4017 61.142C37.4092 60.8554 37.5303 60.5835 37.7382 60.3861L40.98 57.3096C41.188 57.1122 41.4658 57.0056 41.7525 57.0131C42.0391 57.0206 42.311 57.1416 42.5083 57.3496L55.973 71.5376C56.1703 71.7455 56.277 72.0234 56.2695 72.31C56.262 72.5966 56.1409 72.8685 55.933 73.0659L52.6912 76.1424C52.4832 76.3398 52.2054 76.4464 51.9188 76.4389C51.6321 76.4314 51.3602 76.3104 51.1629 76.1024ZM40.0108 61.2102L51.987 73.8299L53.6604 72.2418L41.6842 59.6221L40.0108 61.2102Z" fill="white"/>
<path d="M30.1696 82.6487C29.7006 82.1062 29.4043 81.4362 29.3184 80.7243C29.2325 80.0125 29.3611 79.2911 29.6876 78.6528C30.573 76.4955 31.1736 74.2321 31.4742 71.9196C32.112 67.9714 32.6157 64.8523 39.5518 61.7723C39.7558 61.6815 39.983 61.6561 40.202 61.6996C40.421 61.7432 40.6212 61.8535 40.7751 62.0154L51.2116 73.0125C51.3655 73.1746 51.4654 73.3804 51.4976 73.6016C51.5297 73.8227 51.4925 74.0485 51.3911 74.2476C50.5368 76.0717 49.3821 77.7393 47.9753 79.1808C45.7624 81.2809 43.4965 81.5474 40.8732 81.8566C38.5694 82.0572 36.3007 82.5514 34.1221 83.3271C33.4718 83.6211 32.7485 83.714 32.0451 83.5939C31.3416 83.4739 30.69 83.1464 30.174 82.6534L30.1696 82.6487ZM39.7388 64.0644C34.5356 66.5268 34.199 68.6079 33.6093 72.2661C33.2806 74.75 32.632 77.1811 31.6797 79.4986C31.3855 80.1906 31.4082 80.8129 31.7394 81.1619C32.0668 81.5069 32.6796 81.5574 33.3768 81.3011C35.7152 80.4673 38.1499 79.933 40.6226 79.7111C43.1348 79.4136 44.7978 79.2201 46.4892 77.6149C47.549 76.5337 48.4345 75.2946 49.1141 73.9418L39.7388 64.0644Z" fill="white"/>
<path d="M37.5609 75.5814C37.252 75.2289 37.0541 74.7929 36.9921 74.3283C36.9301 73.8637 37.0067 73.3912 37.2124 72.97C37.6478 71.9082 37.9435 70.7945 38.0921 69.6566C38.4172 67.6669 38.6991 65.9507 41.9452 64.3471C42.152 64.246 42.3858 64.2136 42.6123 64.2546C42.8389 64.2956 43.0465 64.4079 43.2048 64.5751L48.7862 70.4563C48.9446 70.6232 49.0456 70.8362 49.0746 71.0645C49.1035 71.2927 49.0589 71.5242 48.9472 71.7254C48.5395 72.4992 48.0178 73.2073 47.3996 73.826C46.312 74.784 44.9169 75.32 43.4677 75.3367C42.3346 75.4365 41.2187 75.6796 40.1468 76.0604C39.7173 76.2446 39.243 76.2977 38.7834 76.213C38.3238 76.1284 37.8995 75.9097 37.5639 75.5845L37.5609 75.5814ZM42.2013 66.6586C40.6137 67.5959 40.4798 68.4175 40.2212 70.0029C40.0459 71.3109 39.7027 72.5909 39.2001 73.8111C39.1536 73.902 39.1327 74.0037 39.1396 74.1055C39.141 74.0818 39.2387 74.0874 39.3963 74.0289C40.6293 73.5873 41.9136 73.3046 43.2181 73.1875C44.1988 73.2119 45.1554 72.8815 45.912 72.257C46.1927 71.9813 46.4413 71.6749 46.6532 71.3434L42.2013 66.6586Z" fill="white"/>
<path d="M52.0402 61.7932C51.8429 61.5852 51.7362 61.3073 51.7437 61.0207C51.7512 60.7341 51.8722 60.4622 52.0802 60.2648L56.677 55.9024C56.885 55.705 57.1628 55.5984 57.4495 55.6059C57.7361 55.6133 58.008 55.7344 58.2054 55.9424C58.4027 56.1503 58.5094 56.4282 58.5019 56.7148C58.4944 57.0015 58.3734 57.2734 58.1654 57.4707L53.5686 61.8332C53.3606 62.0305 53.0828 62.1372 52.7961 62.1297C52.5095 62.1222 52.2376 62.0012 52.0402 61.7932Z" fill="white"/>
<path d="M48.562 58.0885C48.3646 57.8805 48.2579 57.6027 48.2654 57.3161C48.2729 57.0294 48.394 56.7575 48.602 56.5602L50.6235 54.6416C50.8315 54.4443 51.1094 54.3376 51.396 54.3451C51.6826 54.3526 51.9545 54.4737 52.1519 54.6816C52.3493 54.8896 52.4559 55.1675 52.4484 55.4541C52.4409 55.7407 52.3199 56.0126 52.1119 56.21L50.0903 58.1285C49.8824 58.3259 49.6045 58.4325 49.3179 58.425C49.0313 58.4175 48.7594 58.2965 48.562 58.0885Z" fill="white"/>
<path d="M55.5486 65.4508C55.3512 65.2429 55.2445 64.965 55.252 64.6784C55.2595 64.3917 55.3806 64.1198 55.5885 63.9225L57.6101 62.004C57.8181 61.8066 58.096 61.6999 58.3826 61.7074C58.6692 61.7149 58.9411 61.836 59.1385 62.0439C59.3358 62.2519 59.4425 62.5298 59.435 62.8164C59.4275 63.103 59.3065 63.3749 59.0985 63.5723L57.0769 65.4908C56.8689 65.6882 56.5911 65.7949 56.3045 65.7874C56.0178 65.7799 55.7459 65.6588 55.5486 65.4508Z" fill="white"/>
</g>
<defs>
<clipPath id="clip0_901_9594">
<rect width="80" height="80" fill="white" transform="translate(58.0295) rotate(46.4984)"/>
</clipPath>
</defs>
</svg>
