<svg xmlns="http://www.w3.org/2000/svg" width="19" height="21" viewBox="0 0 19 21" fill="none">
    <path d="M19 21L13 15L19 21ZM15 10C15 10.9193 14.8189 11.8295 14.4672 12.6788C14.1154 13.5281 13.5998 14.2997 12.9497 14.9497C12.2997 15.5998 11.5281 16.1154 10.6788 16.4672C9.82951 16.8189 8.91925 17 8 17C7.08075 17 6.1705 16.8189 5.32122 16.4672C4.47194 16.1154 3.70026 15.5998 3.05025 14.9497C2.40024 14.2997 1.88463 13.5281 1.53284 12.6788C1.18106 11.8295 1 10.9193 1 10C1 8.14348 1.7375 6.36301 3.05025 5.05025C4.36301 3.7375 6.14348 3 8 3C9.85652 3 11.637 3.7375 12.9497 5.05025C14.2625 6.36301 15 8.14348 15 10Z" stroke="white" stroke-width="2" stroke-linecap="round" stroke-linejoin="round"/>
</svg>
