<svg xmlns="http://www.w3.org/2000/svg" width="210" height="24" viewBox="0 0 210 24" fill="none">
    <path d="M204.185 14.6891C204.765 14.3844 205.429 14.2109 206.136 14.2109H206.138C206.21 14.2109 206.244 14.1266 206.191 14.0797C205.456 13.4344 204.616 12.9132 203.705 12.5375C203.696 12.5328 203.686 12.5305 203.677 12.5258C205.165 11.4687 206.133 9.75078 206.133 7.8125C206.133 4.60156 203.478 2 200.201 2C196.925 2 194.272 4.60156 194.272 7.8125C194.272 9.75078 195.24 11.4687 196.731 12.5258C196.721 12.5305 196.712 12.5328 196.702 12.5375C195.631 12.9805 194.669 13.6156 193.843 14.4266C193.02 15.229 192.366 16.1803 191.916 17.2273C191.472 18.2526 191.233 19.3512 191.211 20.4641C191.21 20.4891 191.215 20.514 191.224 20.5373C191.233 20.5605 191.247 20.5818 191.265 20.5997C191.283 20.6176 191.305 20.6318 191.328 20.6415C191.352 20.6513 191.377 20.6563 191.403 20.6562H192.838C192.941 20.6562 193.028 20.5742 193.03 20.4734C193.078 18.6641 193.819 16.9695 195.13 15.6852C196.484 14.3563 198.286 13.625 200.204 13.625C201.563 13.625 202.866 13.993 203.991 14.682C204.019 14.6998 204.053 14.7098 204.087 14.711C204.121 14.7122 204.155 14.7047 204.185 14.6891ZM200.204 11.8438C199.106 11.8438 198.073 11.4242 197.294 10.6625C196.911 10.2887 196.607 9.84443 196.4 9.35529C196.193 8.86616 196.087 8.34183 196.088 7.8125C196.088 6.73672 196.517 5.72422 197.294 4.9625C198.071 4.20078 199.104 3.78125 200.204 3.78125C201.304 3.78125 202.334 4.20078 203.113 4.9625C203.497 5.33631 203.8 5.78057 204.007 6.26971C204.214 6.75884 204.32 7.28317 204.319 7.8125C204.319 8.88828 203.89 9.90078 203.113 10.6625C202.334 11.4242 201.301 11.8438 200.204 11.8438ZM209.019 17.4219H207.006V15.4531C207.006 15.35 206.919 15.2656 206.814 15.2656H205.472C205.366 15.2656 205.28 15.35 205.28 15.4531V17.4219H203.267C203.161 17.4219 203.075 17.5063 203.075 17.6094V18.9219C203.075 19.025 203.161 19.1094 203.267 19.1094H205.28V21.0781C205.28 21.1812 205.366 21.2656 205.472 21.2656H206.814C206.919 21.2656 207.006 21.1812 207.006 21.0781V19.1094H209.019C209.125 19.1094 209.211 19.025 209.211 18.9219V17.6094C209.211 17.5063 209.125 17.4219 209.019 17.4219Z" fill="white"/>
</svg>